<svg width="30" height="30" viewBox="0 0 30 30" fill="none" xmlns="http://www.w3.org/2000/svg">
<path d="M25.0501 8.52511L17.85 3.48761C15.8875 2.11261 12.875 2.18761 10.9875 3.65011L4.72505 8.5376C3.47505 9.5126 2.48755 11.5126 2.48755 13.0876V21.7126C2.48755 24.9001 5.07505 27.5001 8.26255 27.5001H21.7375C24.925 27.5001 27.5126 24.9126 27.5126 21.7251V13.2501C27.5126 11.5626 26.4251 9.48761 25.0501 8.52511ZM15.9375 22.5001C15.9375 23.0126 15.5125 23.4376 15 23.4376C14.4875 23.4376 14.0625 23.0126 14.0625 22.5001V18.7501C14.0625 18.2376 14.4875 17.8126 15 17.8126C15.5125 17.8126 15.9375 18.2376 15.9375 18.7501V22.5001Z" fill="white"/>
</svg>
