<svg width="30" height="30" viewBox="0 0 30 30" fill="none" xmlns="http://www.w3.org/2000/svg">
<path d="M22.475 13.9024V18.7652C22.475 19.0813 22.4625 19.3852 22.425 19.677C22.1375 22.9594 20.15 24.5884 16.4875 24.5884H15.9875C15.675 24.5884 15.375 24.7343 15.1875 24.9774L13.6875 26.9226C13.025 27.7857 11.95 27.7857 11.2875 26.9226L9.78748 24.9774C9.62498 24.7708 9.2625 24.5884 8.9875 24.5884H8.48751C4.50001 24.5884 2.5 23.628 2.5 18.7652V13.9024C2.5 10.3403 4.18751 8.40735 7.55001 8.12774C7.85001 8.09127 8.16251 8.0791 8.48751 8.0791H16.4875C20.475 8.0791 22.475 10.0242 22.475 13.9024Z" stroke="white" stroke-width="1.5" stroke-miterlimit="10" stroke-linecap="round" stroke-linejoin="round"/>
<path d="M27.4751 9.03956V13.9024C27.4751 17.4766 25.7875 19.3974 22.425 19.677C22.4625 19.3852 22.4751 19.0813 22.4751 18.7652V13.9024C22.4751 10.0243 20.475 8.07914 16.4875 8.07914H8.48755C8.16255 8.07914 7.85005 8.09131 7.55005 8.12778C7.83755 4.85752 9.82505 3.21631 13.4875 3.21631H21.4875C25.475 3.21631 27.4751 5.16145 27.4751 9.03956Z" stroke="white" stroke-width="1.5" stroke-miterlimit="10" stroke-linecap="round" stroke-linejoin="round"/>
<path d="M16.8694 16.893H16.8806" stroke="white" stroke-width="2" stroke-linecap="round" stroke-linejoin="round"/>
<path d="M12.4944 16.893H12.5056" stroke="white" stroke-width="2" stroke-linecap="round" stroke-linejoin="round"/>
<path d="M8.11937 16.893H8.13062" stroke="white" stroke-width="2" stroke-linecap="round" stroke-linejoin="round"/>
</svg>
