<svg width="12" height="12" viewBox="0 0 12 12" fill="none" xmlns="http://www.w3.org/2000/svg">
<g clip-path="url(#clip0_783_2940)">
<path d="M11.3768 4.36785L5.27828 10.3987C4.26779 11.3981 2.6293 11.3981 1.61881 10.3987C0.608315 9.39936 0.608315 7.77931 1.61881 6.77994L7.10781 1.35222C7.78162 0.686111 8.87351 0.686111 9.54734 1.35222C10.2211 2.01831 10.2211 3.09865 9.54734 3.76474L4.05831 9.19248C3.72163 9.52575 3.17546 9.52575 2.83835 9.19248C2.50166 8.85965 2.50166 8.3195 2.83835 7.98622L7.71738 3.1616L7.10738 2.55848L2.2288 7.38351C1.555 8.04962 1.555 9.12994 2.2288 9.79602C2.90261 10.4621 3.9945 10.4621 4.66831 9.79602L10.1573 4.36829C11.1678 3.36894 11.1678 1.74888 10.1573 0.749512C9.14682 -0.249837 7.50835 -0.249837 6.49786 0.749512L0.703837 6.4788L0.724834 6.49978C-0.327653 7.83797 -0.235127 9.77246 1.00883 11.0023C2.2528 12.2321 4.20825 12.3242 5.56185 11.2828L5.58285 11.3038L11.9864 4.9714L11.3768 4.36785Z" fill="#A3A5AB"/>
</g>
<defs>
<clipPath id="clip0_783_2940">
<rect width="12" height="12" fill="white"/>
</clipPath>
</defs>
</svg>
