<svg width="22" height="22" viewBox="0 0 22 22" fill="none" xmlns="http://www.w3.org/2000/svg">
<path d="M0.917318 17.4167C0.917318 17.9029 1.11047 18.3692 1.45429 18.713C1.79811 19.0568 2.26442 19.25 2.75065 19.25H19.2507C19.7369 19.25 20.2032 19.0568 20.547 18.713C20.8908 18.3692 21.084 17.9029 21.084 17.4167V7.33333C21.084 6.8471 20.8908 6.38079 20.547 6.03697C20.2032 5.69315 19.7369 5.5 19.2507 5.5H15.584L13.7507 2.75H8.25065L6.41732 5.5H2.75065C2.26442 5.5 1.79811 5.69315 1.45429 6.03697C1.11047 6.38079 0.917318 6.8471 0.917318 7.33333V17.4167Z" fill="#B5B4B4"/>
<path d="M10.9993 15.5833C8.9743 15.5833 7.33268 13.9417 7.33268 11.9167C7.33268 9.89162 8.9743 8.25 10.9993 8.25C13.0244 8.25 14.666 9.89162 14.666 11.9167C14.666 13.9417 13.0244 15.5833 10.9993 15.5833Z" fill="white"/>
</svg>
