<svg width="18" height="16" viewBox="0 0 18 16" fill="none" xmlns="http://www.w3.org/2000/svg">
<path d="M16.8 1.58632C17.543 1.68178 18.0728 2.35434 17.9918 3.09902L16.9375 12.4273C16.8565 13.1697 16.1889 13.7058 15.4465 13.6247C15.4316 13.6231 15.4168 13.6212 15.4019 13.6191H15.3332V5.07007C15.3332 4.31061 14.7175 3.6949 13.958 3.6949H2.49823L2.75035 1.40295C2.84594 0.647384 3.52868 0.107264 4.28595 0.188203L16.8 1.58632Z" fill="#2865DC"/>
<path d="M15.3331 13.6193V14.4444C15.3331 15.2038 14.7174 15.8196 13.958 15.8196H1.37517C0.615707 15.8196 0 15.2038 0 14.4444V12.5191L3.78172 9.76878C4.38132 9.31385 5.22037 9.35241 5.77571 9.86047L8.29684 12.0607C8.55464 12.2794 8.87413 12.4123 9.21093 12.441C9.54773 12.4698 9.88512 12.3929 10.1762 12.2212L15.3331 9.1958V13.6193Z" fill="#E8F1FD"/>
<path d="M15.3331 5.07V9.19552L10.1762 12.2209C9.88512 12.3926 9.54773 12.4695 9.21093 12.4407C8.87413 12.412 8.55464 12.2791 8.29684 12.0605L5.77571 9.86018C5.22037 9.35217 4.38132 9.31357 3.78172 9.7685L0 12.5188V5.07C0 4.31053 0.615707 3.69482 1.37517 3.69482H13.958C14.7175 3.69487 15.3331 4.31053 15.3331 5.07Z" fill="#94BBEF"/>
<path d="M9.16782 8.92054C9.97794 8.92054 10.6347 8.2638 10.6347 7.45368C10.6347 6.64355 9.97794 5.98682 9.16782 5.98682C8.35769 5.98682 7.70096 6.64355 7.70096 7.45368C7.70096 8.2638 8.35769 8.92054 9.16782 8.92054Z" fill="#2865DC"/>
</svg>
