<svg width="24" height="24" viewBox="0 0 24 24" fill="none" xmlns="http://www.w3.org/2000/svg">
<path d="M4.5 1.5C2.8455 1.5 1.5 2.8455 1.5 4.5C1.5 6.1545 2.8455 7.5 4.5 7.5C6.1545 7.5 7.5 6.1545 7.5 4.5C7.5 2.8455 6.1545 1.5 4.5 1.5ZM4.5 6C3.67275 6 3 5.32725 3 4.5C3 3.67275 3.67275 3 4.5 3C5.32725 3 6 3.67275 6 4.5C6 5.32725 5.32725 6 4.5 6ZM9 4.5C9 4.30109 9.07902 4.11032 9.21967 3.96967C9.36032 3.82902 9.55109 3.75 9.75 3.75H21.75C21.9489 3.75 22.1397 3.82902 22.2803 3.96967C22.421 4.11032 22.5 4.30109 22.5 4.5C22.5 4.69891 22.421 4.88968 22.2803 5.03033C22.1397 5.17098 21.9489 5.25 21.75 5.25H9.75C9.55109 5.25 9.36032 5.17098 9.21967 5.03033C9.07902 4.88968 9 4.69891 9 4.5ZM4.5 9C2.8455 9 1.5 10.3455 1.5 12C1.5 13.6545 2.8455 15 4.5 15C6.1545 15 7.5 13.6545 7.5 12C7.5 10.3455 6.1545 9 4.5 9ZM4.5 13.5C3.67275 13.5 3 12.8273 3 12C3 11.1727 3.67275 10.5 4.5 10.5C5.32725 10.5 6 11.1727 6 12C6 12.8273 5.32725 13.5 4.5 13.5ZM22.5 12C22.5 12.1989 22.421 12.3897 22.2803 12.5303C22.1397 12.671 21.9489 12.75 21.75 12.75H9.75C9.55109 12.75 9.36032 12.671 9.21967 12.5303C9.07902 12.3897 9 12.1989 9 12C9 11.8011 9.07902 11.6103 9.21967 11.4697C9.36032 11.329 9.55109 11.25 9.75 11.25H21.75C21.9489 11.25 22.1397 11.329 22.2803 11.4697C22.421 11.6103 22.5 11.8011 22.5 12ZM4.5 16.5C2.8455 16.5 1.5 17.8455 1.5 19.5C1.5 21.1545 2.8455 22.5 4.5 22.5C6.1545 22.5 7.5 21.1545 7.5 19.5C7.5 17.8455 6.1545 16.5 4.5 16.5ZM4.5 21C3.67275 21 3 20.3273 3 19.5C3 18.6727 3.67275 18 4.5 18C5.32725 18 6 18.6727 6 19.5C6 20.3273 5.32725 21 4.5 21ZM22.5 19.5C22.5 19.6989 22.421 19.8897 22.2803 20.0303C22.1397 20.171 21.9489 20.25 21.75 20.25H9.75C9.55109 20.25 9.36032 20.171 9.21967 20.0303C9.07902 19.8897 9 19.6989 9 19.5C9 19.3011 9.07902 19.1103 9.21967 18.9697C9.36032 18.829 9.55109 18.75 9.75 18.75H21.75C21.9489 18.75 22.1397 18.829 22.2803 18.9697C22.421 19.1103 22.5 19.3011 22.5 19.5Z" fill="#A3A5AB"/>
</svg>
