<svg width="30" height="30" viewBox="0 0 30 30" fill="none" xmlns="http://www.w3.org/2000/svg">
<path d="M15.0252 3.6377C10.8877 3.6377 7.52523 7.0002 7.52523 11.1377V14.7502C7.52523 15.5127 7.20023 16.6752 6.81273 17.3252L5.37523 19.7127C4.48773 21.1877 5.10023 22.8252 6.72523 23.3752C12.1127 25.1752 17.9252 25.1752 23.3127 23.3752C24.8252 22.8752 25.4877 21.0877 24.6627 19.7127L23.2252 17.3252C22.8502 16.6752 22.5252 15.5127 22.5252 14.7502V11.1377C22.5252 7.0127 19.1502 3.6377 15.0252 3.6377Z" stroke="#2865DC" stroke-width="1.5" stroke-miterlimit="10" stroke-linecap="round"/>
<path d="M17.3374 3.9998C16.9499 3.8873 16.5499 3.7998 16.1374 3.7498C14.9374 3.5998 13.7874 3.6873 12.7124 3.9998C13.0749 3.0748 13.9749 2.4248 15.0249 2.4248C16.0749 2.4248 16.9749 3.0748 17.3374 3.9998Z" stroke="#2865DC" stroke-width="1.5" stroke-miterlimit="10" stroke-linecap="round" stroke-linejoin="round"/>
<path d="M18.7749 23.8252C18.7749 25.8877 17.0874 27.5752 15.0249 27.5752C13.9999 27.5752 13.0499 27.1502 12.3749 26.4752C11.6999 25.8002 11.2749 24.8502 11.2749 23.8252" stroke="#2865DC" stroke-width="1.5" stroke-miterlimit="10"/>
</svg>
