<svg width="55" height="55" viewBox="0 0 55 55" fill="none" xmlns="http://www.w3.org/2000/svg">
<g clip-path="url(#clip0_19_326)">
<path fill-rule="evenodd" clip-rule="evenodd" d="M5.58334 0C5.03106 0 4.58334 0.447714 4.58334 0.999999V54C4.58334 54.5523 5.03106 55 5.58334 55H49.4167C49.969 55 50.4167 54.5523 50.4167 54L50.4167 9.16667L41.25 0H5.58334Z" fill="#E9F0FA"/>
<path fill-rule="evenodd" clip-rule="evenodd" d="M41.25 0V9.16667H50.4167L41.25 0Z" fill="#C2CDDE"/>
</g>
<rect x="2.29167" y="22.9167" width="50.4167" height="22.9167" rx="1" fill="#F14848"/>
<path d="M20.2575 37.375V31.5568H22.4393C22.8862 31.5568 23.2612 31.6402 23.5643 31.8068C23.8692 31.9735 24.0993 32.2027 24.2546 32.4943C24.4118 32.7841 24.4904 33.1136 24.4904 33.483C24.4904 33.8561 24.4118 34.1875 24.2546 34.4773C24.0974 34.767 23.8654 34.9953 23.5586 35.1619C23.2518 35.3267 22.8739 35.4091 22.4251 35.4091H20.979V34.5426H22.283C22.5444 34.5426 22.7584 34.4972 22.9251 34.4062C23.0917 34.3153 23.2148 34.1903 23.2944 34.0312C23.3758 33.8722 23.4165 33.6894 23.4165 33.483C23.4165 33.2765 23.3758 33.0947 23.2944 32.9375C23.2148 32.7803 23.0908 32.6581 22.9222 32.571C22.7556 32.482 22.5406 32.4375 22.2773 32.4375H21.3114V37.375H20.2575ZM27.3775 37.375H25.4059V31.5568H27.4173C27.9949 31.5568 28.4911 31.6733 28.9059 31.9062C29.3226 32.1373 29.6426 32.4697 29.8661 32.9034C30.0896 33.3371 30.2013 33.8561 30.2013 34.4602C30.2013 35.0663 30.0887 35.5871 29.8633 36.0227C29.6398 36.4583 29.3169 36.7926 28.8945 37.0256C28.4741 37.2585 27.9684 37.375 27.3775 37.375ZM26.4599 36.4631H27.3263C27.7317 36.4631 28.0697 36.3892 28.3406 36.2415C28.6114 36.0919 28.815 35.8693 28.9513 35.5739C29.0877 35.2765 29.1559 34.9053 29.1559 34.4602C29.1559 34.0152 29.0877 33.6458 28.9513 33.3523C28.815 33.0568 28.6133 32.8362 28.3462 32.6903C28.0811 32.5426 27.7515 32.4688 27.3576 32.4688H26.4599V36.4631ZM31.2028 37.375V31.5568H34.93V32.4403H32.2567V34.0199H34.6744V34.9034H32.2567V37.375H31.2028Z" fill="white"/>
<defs>
<clipPath id="clip0_19_326">
<rect width="45.8333" height="55" fill="white" transform="translate(4.58334)"/>
</clipPath>
</defs>
</svg>
