<svg width="51" height="55" viewBox="0 0 51 55" fill="none" xmlns="http://www.w3.org/2000/svg">
<g clip-path="url(#clip0_19_285)">
<path fill-rule="evenodd" clip-rule="evenodd" d="M3.58333 0C3.03104 0 2.58333 0.447714 2.58333 0.999999V54C2.58333 54.5523 3.03104 55 3.58333 55H47.4167C47.9689 55 48.4167 54.5523 48.4167 54L48.4167 9.16667L39.25 0H3.58333Z" fill="#E9F0FA"/>
<path fill-rule="evenodd" clip-rule="evenodd" d="M39.25 0V9.16667H48.4167L39.25 0Z" fill="#C2CDDE"/>
</g>
<rect x="0.291664" y="26" width="50.4167" height="10" rx="1" fill="#4881F1"/>
<path d="M17.5153 34V28.1818H19.6971C20.1441 28.1818 20.5191 28.2652 20.8221 28.4318C21.127 28.5985 21.3571 28.8277 21.5124 29.1193C21.6696 29.4091 21.7482 29.7386 21.7482 30.108C21.7482 30.4811 21.6696 30.8125 21.5124 31.1023C21.3552 31.392 21.1232 31.6203 20.8164 31.7869C20.5096 31.9517 20.1317 32.0341 19.6829 32.0341H18.2369V31.1676H19.5408C19.8022 31.1676 20.0162 31.1222 20.1829 31.0312C20.3496 30.9403 20.4727 30.8153 20.5522 30.6562C20.6336 30.4972 20.6744 30.3144 20.6744 30.108C20.6744 29.9015 20.6336 29.7197 20.5522 29.5625C20.4727 29.4053 20.3486 29.2831 20.18 29.196C20.0134 29.107 19.7984 29.0625 19.5352 29.0625H18.5692V34H17.5153ZM27.445 28.1818V34H26.5075L23.766 30.0369H23.7177V34H22.6637V28.1818H23.6069L26.3455 32.1477H26.3967V28.1818H27.445ZM32.4911 30.0398C32.4438 29.8864 32.3784 29.7491 32.2951 29.6278C32.2137 29.5047 32.1152 29.3996 31.9996 29.3125C31.886 29.2254 31.7553 29.16 31.6076 29.1165C31.4599 29.071 31.2989 29.0483 31.1246 29.0483C30.8121 29.0483 30.5337 29.1269 30.2894 29.2841C30.0451 29.4413 29.8529 29.6723 29.7127 29.9773C29.5745 30.2803 29.5053 30.6496 29.5053 31.0852C29.5053 31.5246 29.5745 31.8968 29.7127 32.2017C29.851 32.5066 30.0432 32.7386 30.2894 32.8977C30.5356 33.0549 30.8216 33.1335 31.1474 33.1335C31.4428 33.1335 31.6985 33.0767 31.9144 32.9631C32.1322 32.8494 32.2998 32.6884 32.4173 32.4801C32.5347 32.2699 32.5934 32.0237 32.5934 31.7415L32.832 31.7784H31.2525V30.9545H33.6133V31.6534C33.6133 32.1515 33.5072 32.5824 33.2951 32.946C33.083 33.3097 32.7913 33.59 32.4201 33.7869C32.0489 33.982 31.6228 34.0795 31.1417 34.0795C30.6057 34.0795 30.1351 33.9593 29.7298 33.7188C29.3263 33.4763 29.011 33.1326 28.7837 32.6875C28.5584 32.2405 28.4457 31.7102 28.4457 31.0966C28.4457 30.6269 28.512 30.2074 28.6445 29.8381C28.779 29.4688 28.9665 29.1553 29.207 28.8977C29.4476 28.6383 29.7298 28.4413 30.0536 28.3068C30.3775 28.1705 30.7298 28.1023 31.1104 28.1023C31.4324 28.1023 31.7326 28.1496 32.011 28.2443C32.2894 28.3371 32.5366 28.4697 32.7525 28.642C32.9703 28.8144 33.1493 29.0189 33.2894 29.2557C33.4296 29.4924 33.5214 29.7538 33.565 30.0398H32.4911Z" fill="white"/>
<defs>
<clipPath id="clip0_19_285">
<rect width="45.8333" height="55" fill="white" transform="translate(2.58333)"/>
</clipPath>
</defs>
</svg>
