<svg width="12" height="12" viewBox="0 0 12 12" fill="none" xmlns="http://www.w3.org/2000/svg">
<path d="M10.5 2.99023C8.835 2.82523 7.16 2.74023 5.49 2.74023C4.5 2.74023 3.51 2.79023 2.52 2.89023L1.5 2.99023" stroke="#2865DC" stroke-width="1.5" stroke-linecap="round" stroke-linejoin="round"/>
<path d="M4.25 2.485L4.36 1.83C4.44 1.355 4.5 1 5.345 1H6.655C7.5 1 7.565 1.375 7.64 1.835L7.75 2.485" stroke="#2865DC" stroke-width="1.5" stroke-linecap="round" stroke-linejoin="round"/>
<path d="M9.42501 4.56982L9.10001 9.60482C9.04501 10.3898 9.00001 10.9998 7.60501 10.9998H4.39501C3.00001 10.9998 2.95501 10.3898 2.90001 9.60482L2.57501 4.56982" stroke="#2865DC" stroke-width="1.5" stroke-linecap="round" stroke-linejoin="round"/>
<path d="M5.16501 8.25H6.83001" stroke="#2865DC" stroke-width="1.5" stroke-linecap="round" stroke-linejoin="round"/>
<path d="M4.75 6.25H7.25" stroke="#2865DC" stroke-width="1.5" stroke-linecap="round" stroke-linejoin="round"/>
</svg>
