<svg width="55" height="55" viewBox="0 0 55 55" fill="none" xmlns="http://www.w3.org/2000/svg">
<g clip-path="url(#clip0_19_338)">
<path fill-rule="evenodd" clip-rule="evenodd" d="M5.58334 0C5.03106 0 4.58334 0.447714 4.58334 0.999999V54C4.58334 54.5523 5.03106 55 5.58334 55H49.4167C49.969 55 50.4167 54.5523 50.4167 54L50.4167 9.16667L41.25 0H5.58334Z" fill="#E9F0FA"/>
<path fill-rule="evenodd" clip-rule="evenodd" d="M41.25 0V9.16667H50.4167L41.25 0Z" fill="#C2CDDE"/>
</g>
<rect x="2.29167" y="26" width="50.4167" height="10" rx="1" fill="#0F8105"/>
<path d="M21.3295 28.1818L22.6108 30.3125H22.6562L23.9432 28.1818H25.1449L23.3523 31.0909L25.1733 34H23.9517L22.6562 31.8835H22.6108L21.3153 34H20.0994L21.9375 31.0909L20.1222 28.1818H21.3295ZM25.9723 34V28.1818H27.0263V33.1165H29.5888V34H25.9723ZM33.6655 29.7812C33.639 29.5331 33.5272 29.34 33.3303 29.2017C33.1352 29.0634 32.8814 28.9943 32.5689 28.9943C32.3492 28.9943 32.1607 29.0275 32.0036 29.0938C31.8464 29.16 31.7261 29.25 31.6428 29.3636C31.5594 29.4773 31.5168 29.607 31.5149 29.7528C31.5149 29.8741 31.5424 29.9792 31.5973 30.0682C31.6541 30.1572 31.7308 30.233 31.8274 30.2955C31.924 30.3561 32.031 30.4072 32.1484 30.4489C32.2659 30.4905 32.3842 30.5256 32.5036 30.554L33.049 30.6903C33.2687 30.7415 33.4799 30.8106 33.6825 30.8977C33.8871 30.9848 34.0698 31.0947 34.2308 31.2273C34.3937 31.3598 34.5225 31.5199 34.6172 31.7074C34.7119 31.8949 34.7592 32.1146 34.7592 32.3665C34.7592 32.7074 34.6721 33.0076 34.4979 33.267C34.3236 33.5246 34.0717 33.7263 33.7422 33.8722C33.4145 34.0161 33.0178 34.0881 32.5518 34.0881C32.0992 34.0881 31.7062 34.018 31.3729 33.8778C31.0414 33.7377 30.782 33.5331 30.5945 33.2642C30.4089 32.9953 30.3085 32.6676 30.2933 32.2812H31.3303C31.3454 32.4839 31.4079 32.6525 31.5178 32.7869C31.6276 32.9214 31.7706 33.0218 31.9467 33.0881C32.1248 33.1544 32.3236 33.1875 32.5433 33.1875C32.7725 33.1875 32.9732 33.1534 33.1456 33.0852C33.3198 33.0152 33.4562 32.9186 33.5547 32.7955C33.6532 32.6705 33.7034 32.5246 33.7053 32.358C33.7034 32.2064 33.6589 32.0814 33.5717 31.983C33.4846 31.8826 33.3625 31.7992 33.2053 31.733C33.05 31.6648 32.8681 31.6042 32.6598 31.5511L31.9979 31.3807C31.5187 31.2576 31.1399 31.071 30.8615 30.821C30.585 30.5691 30.4467 30.2348 30.4467 29.8182C30.4467 29.4754 30.5395 29.1752 30.7251 28.9176C30.9126 28.66 31.1674 28.4602 31.4893 28.3182C31.8113 28.1742 32.1759 28.1023 32.5831 28.1023C32.996 28.1023 33.3577 28.1742 33.6683 28.3182C33.9808 28.4602 34.2261 28.6581 34.4041 28.9119C34.5821 29.1638 34.674 29.4536 34.6797 29.7812H33.6655Z" fill="white"/>
<defs>
<clipPath id="clip0_19_338">
<rect width="45.8333" height="55" fill="white" transform="translate(4.58334)"/>
</clipPath>
</defs>
</svg>
